<?xml version="1.0" encoding="UTF-8" standalone="no"?>
<!DOCTYPE svg PUBLIC "-//W3C//DTD SVG 1.1//EN" "http://www.w3.org/Graphics/SVG/1.1/DTD/svg11.dtd">
<svg width="100%" height="100%" viewBox="0 0 2481 3508" version="1.1" xmlns="http://www.w3.org/2000/svg" xmlns:xlink="http://www.w3.org/1999/xlink" xml:space="preserve" xmlns:serif="http://www.serif.com/" style="fill-rule:evenodd;clip-rule:evenodd;stroke-linecap:round;stroke-linejoin:round;stroke-miterlimit:1.5;">
    <g>
        <g transform="matrix(0.181371,0,0,0.129162,1039.97,34.521)">
            <rect x="212.756" y="316.466" width="2117.2" height="2973" style="fill:white;stroke:black;stroke-width:52.93px;"/>
        </g>
        <g transform="matrix(1,0,0,1,249.946,-556.926)">
            <path d="M981.618,953.128C960.114,958.98 926.496,975.993 912.205,985.792C903.734,991.602 885.669,1010.74 895.873,1011.92C931.124,1016.01 1090.5,1016.01 1123.71,1010.29C1137.97,1007.84 1106.85,986.101 1095.13,977.626C1081.38,967.691 1060.15,954.761 1041.23,950.678C1022.31,946.595 1000.81,947.905 981.618,953.128Z" style="stroke:black;stroke-width:4.17px;"/>
        </g>
        <path d="M1232.38,340.304C1232.42,331.784 1230.09,322.017 1232.38,314.744C1234.65,307.526 1238.81,298.676 1246.11,296.664C1255.15,294.17 1279.1,296.924 1286.63,299.781C1291.24,301.529 1290.78,308.908 1291.3,313.808C1292.34,323.419 1292.6,344.72 1292.86,357.448C1293.09,368.356 1294.94,382.645 1292.86,390.178C1291.3,395.844 1286.01,400.918 1280.39,402.647C1273.64,404.725 1260.13,403.166 1252.34,402.647C1246.03,402.226 1237.01,403.945 1233.64,399.529C1230.26,395.113 1232.25,383.959 1232.08,376.151C1231.87,366.28 1232.33,350.538 1232.38,340.304Z" style="fill:white;stroke:black;stroke-width:4.17px;"/>
        <path d="M1187.65,122.303C1213.43,87.105 1319.62,87.579 1343.42,124.131C1367.23,160.684 1356.26,306.418 1330.48,341.616C1304.69,376.813 1212.53,371.868 1188.72,335.316C1164.92,298.763 1161.86,157.5 1187.65,122.303Z" style="fill:white;stroke:black;stroke-width:4.17px;"/>
        <g transform="matrix(1,0,0,1,249.946,-556.926)">
            <path d="M922.861,749.256C924.128,752.108 930.612,732.784 935.715,725.293C941.026,717.497 946.982,708.644 954.727,702.48C962.49,696.301 972.471,686.32 982.293,688.221C992.116,690.122 1007.8,713.886 1013.66,713.886C1019.52,713.886 1010.06,692.691 1017.46,688.221C1025.86,683.151 1051.44,674.258 1064.04,683.468C1078.61,694.116 1099.33,752.266 1104.86,752.108C1110.39,751.95 1102.31,696.492 1097.25,682.518C1094.2,674.103 1082.71,671.818 1074.5,668.259C1063.15,663.34 1045.04,654.501 1029.17,653.006C1012.8,651.464 989.015,656.466 976.291,659.008C968.047,660.655 959.747,663.707 952.826,668.259C945.905,672.811 938.884,679.666 934.765,686.32C930.755,692.797 929.527,700.698 928.111,708.183C926.127,718.672 921.593,746.405 922.861,749.256Z" style="stroke:black;stroke-width:4.17px;"/>
        </g>
        <g transform="matrix(1,0,0,2.88264,247.263,-1878.03)">
            <circle cx="964.232" cy="730.046" r="6.654" style="stroke:black;stroke-width:1.93px;"/>
        </g>
        <g transform="matrix(1,0,0,2.99339,342.075,-1960.54)">
            <circle cx="964.232" cy="730.046" r="6.654" style="stroke:black;stroke-width:1.87px;"/>
        </g>
        <g transform="matrix(1.07724,0,0,1,491.464,-72.0309)">
            <path d="M842,506.5C842,495.186 833.473,486 822.97,486L615.03,486C604.527,486 596,495.186 596,506.5L596,547.5C596,558.814 604.527,568 615.03,568L822.97,568C833.473,568 842,558.814 842,547.5L842,506.5Z" style="stroke:white;stroke-width:4.01px;"/>
        </g>
        <g transform="matrix(0.589003,0,0,0.589003,784.604,146.883)">
            <text x="673.59px" y="541.858px" style="font-family:'Arial-BoldMT', 'Arial', sans-serif;font-weight:700;font-size:50px;fill:white;stroke:white;stroke-width:1.7px;stroke-linecap:butt;stroke-miterlimit:2;">DESIGNER</text>
        </g>
    </g>
    <g>
        <g transform="matrix(0.181371,0,0,0.129162,536.609,36.1911)">
            <rect x="212.756" y="316.466" width="2117.2" height="2973" style="fill:white;stroke:black;stroke-width:52.93px;"/>
        </g>
        <g transform="matrix(1.12442,0,0,1.11946,-139.112,-614.89)">
            <g transform="matrix(1.20621,0,0,1.16592,-180.968,-192.188)">
                <path d="M802.61,937.39C782.714,940.584 746.347,949.927 728.921,958.023C716.335,963.871 691.67,980.316 698.056,985.965C704.443,991.615 744.094,991.691 767.239,991.92C793.017,992.176 825.032,988.742 852.718,987.499C879.589,986.292 925.495,991.094 933.355,984.462C941.215,977.83 914.056,955.306 899.879,947.707C885.703,940.107 864.509,940.584 848.297,938.864C833.145,937.257 817.654,934.976 802.61,937.39Z" style="stroke:black;stroke-width:3.13px;"/>
            </g>
            <g transform="matrix(1.20621,0,0,1.16592,-192.276,-192.188)">
                <path d="M832.672,885.6C828.616,883.672 822.122,882.19 819.2,885.6C814.831,890.697 808.823,906.475 806.457,916.184C804.269,925.158 803.544,938.272 805,943.855C805.988,947.642 811.292,949.392 815.195,949.681C821.749,950.166 837.526,947.253 844.323,946.768C848.196,946.491 854.146,950.195 855.974,946.768C857.916,943.127 855.974,932.204 855.974,924.922C855.974,917.64 859.686,909.341 855.974,903.076C852.09,896.523 838.801,888.513 832.672,885.6Z" style="fill:white;stroke:black;stroke-width:3.13px;"/>
            </g>
            <g transform="matrix(0.724934,0,0,1,222.05,0)">
                <path d="M702.823,661.517C740.933,628.852 884.113,628.852 921.678,661.517C959.243,694.182 966.32,824.841 928.211,857.506C890.102,890.171 730.589,890.171 693.024,857.506C655.459,824.841 664.714,694.182 702.823,661.517Z" style="fill:white;stroke:black;stroke-width:4.26px;"/>
            </g>
            <path d="M731.86,713.934C756.823,702.384 860.401,697.354 886.109,707.227C906.63,715.109 894.492,761.624 886.109,773.175C877.726,784.725 847.174,785.842 835.81,776.528C824.446,767.213 825.005,726.974 817.926,717.287C813.085,710.662 796.783,710.959 793.336,718.405C788.679,728.465 799.483,767.958 789.983,777.646C780.482,787.333 746.018,787.146 736.331,776.528C726.644,765.909 712.875,722.718 731.86,713.934Z" style="stroke:black;stroke-width:3.71px;"/>
            <g transform="matrix(1.2608,0,0,1.15655,-200.471,-111.702)">
                <path d="M741.919,721.758C747.694,713.561 773.216,710.394 779.923,717.287C786.629,724.18 787.933,754.918 782.158,763.115C776.383,771.312 751.979,773.361 745.273,766.468C738.566,759.575 736.144,729.955 741.919,721.758Z" style="fill:white;stroke:black;stroke-width:3.07px;"/>
            </g>
            <g transform="matrix(1.23709,0,0,1.23483,-82.3602,-176.495)">
                <path d="M741.919,721.758C747.694,714.165 773.216,714.015 779.923,720.908C786.629,727.801 787.933,755.521 782.158,763.115C776.383,770.708 751.979,773.361 745.273,766.468C738.566,759.575 736.144,729.351 741.919,721.758Z" style="fill:white;stroke:black;stroke-width:3px;"/>
            </g>
            <g transform="matrix(1,0,0,2.88264,-201.293,-1361.62)">
                <circle cx="964.232" cy="730.046" r="6.654" style="stroke:black;stroke-width:1.72px;"/>
            </g>
            <g transform="matrix(1,0,0,2.99339,-106.482,-1444.14)">
                <circle cx="964.232" cy="730.046" r="6.654" style="stroke:black;stroke-width:1.67px;"/>
            </g>
            <path d="M712.858,717.287C715.839,715.424 726.271,721.013 728.506,725.111C730.742,729.21 729.252,740.015 726.271,741.878C723.29,743.74 712.858,740.387 710.622,736.289C708.387,732.19 709.877,719.15 712.858,717.287Z" style="stroke:black;stroke-width:3.71px;"/>
            <path d="M893.933,713.934C896.355,710.208 906.415,702.943 909.582,704.992C912.749,707.041 915.357,722.503 912.935,726.229C910.513,729.955 898.218,729.396 895.051,727.347C891.884,725.298 891.511,717.66 893.933,713.934Z" style="stroke:black;stroke-width:3.71px;"/>
            <path d="M796.689,865.948C802.278,861.29 824.446,861.663 830.222,865.948C835.997,870.232 832.83,888.489 831.339,891.656C829.849,894.823 823.701,884.018 821.28,884.949C818.858,885.881 819.417,897.617 816.809,897.245C814.2,896.872 808.984,883.273 805.631,882.714C802.278,882.155 798.179,896.686 796.689,893.891C795.199,891.097 791.1,870.605 796.689,865.948Z" style="stroke:black;stroke-width:3.71px;"/>
        </g>
        <g transform="matrix(1.07724,0,0,1,-5.22446,-72.5855)">
            <path d="M842,506.5C842,495.186 833.473,486 822.97,486L615.03,486C604.527,486 596,495.186 596,506.5L596,547.5C596,558.814 604.527,568 615.03,568L822.97,568C833.473,568 842,558.814 842,547.5L842,506.5Z" style="stroke:white;stroke-width:4.01px;"/>
        </g>
        <g transform="matrix(0.589003,0,0,0.589003,262.737,144.59)">
            <text x="673.59px" y="541.858px" style="font-family:'Arial-BoldMT', 'Arial', sans-serif;font-weight:700;font-size:50px;fill:white;stroke:white;stroke-width:1.7px;stroke-linecap:butt;stroke-miterlimit:2;">PROGRAMMER</text>
        </g>
    </g>
    <g>
        <g transform="matrix(0.181371,0,0,0.129162,21.5606,29.0252)">
            <rect x="212.756" y="316.466" width="2117.2" height="2973" style="fill:white;stroke:black;stroke-width:52.93px;"/>
        </g>
        <g transform="matrix(1.20621,0,0,1.16592,-739.371,-744.012)">
            <g transform="matrix(1,0,0,1,-7.36887,36.8444)">
                <path d="M802.61,937.39C782.714,940.584 746.115,950.409 728.921,958.023C717.131,963.245 693.06,977.428 699.446,983.077C705.832,988.727 744.46,991.263 767.239,991.92C792.785,992.657 826.19,989.464 852.718,987.499C877.336,985.675 918.547,986.762 926.407,980.13C934.267,973.498 912.226,954.23 899.879,947.707C886.861,940.829 864.509,940.584 848.297,938.864C833.145,937.257 817.654,934.976 802.61,937.39Z" style="stroke:black;stroke-width:3.51px;"/>
            </g>
            <g transform="matrix(1,0,0,1,-7.36887,36.8444)">
                <path d="M941.9,855.016C951.367,855.259 973.199,851.448 969.572,841.908C963.018,824.674 912.045,751.855 902.578,751.613C893.112,751.37 906.219,823.218 912.773,840.452C916.631,850.598 932.434,854.773 941.9,855.016Z" style="fill:white;stroke:black;stroke-width:3.51px;"/>
            </g>
            <g transform="matrix(1,0,0,1,-7.36887,36.8444)">
                <path d="M832.672,885.6C828.616,883.672 822.122,882.19 819.2,885.6C814.831,890.697 808.823,906.475 806.457,916.184C804.269,925.158 803.544,938.272 805,943.855C805.988,947.642 811.292,949.392 815.195,949.681C821.749,950.166 837.526,947.253 844.323,946.768C848.196,946.491 854.146,950.195 855.974,946.768C857.916,943.127 855.974,932.204 855.974,924.922C855.974,917.64 859.686,909.341 855.974,903.076C852.09,896.523 838.801,888.513 832.672,885.6Z" style="fill:white;stroke:black;stroke-width:3.51px;"/>
            </g>
            <g transform="matrix(-0.719218,0,0,0.83685,1207.58,128.052)">
                <path d="M402.023,836.985C405.737,828.166 415.021,811.571 421.519,802.171C427.033,794.196 433.939,787.213 441.015,780.586C448.326,773.739 461.208,762.831 465.386,761.09C468.179,759.926 466.72,767.184 466.082,770.142C464.805,776.06 460.787,787.873 457.726,796.601C454.593,805.536 449.361,814.283 447.282,823.756C445.193,833.272 444.961,844.412 445.193,853.696C445.41,862.359 446.626,871.039 448.675,879.459C450.763,888.046 454.129,897.098 457.726,905.222C461.259,913.199 471.884,927.503 470.26,928.199C468.635,928.895 451.344,909.399 447.978,909.399C444.613,909.399 448.831,922.016 450.067,928.199C451.576,935.742 454.361,946.883 457.03,954.658C459.425,961.634 463.181,969.396 466.082,974.85C468.44,979.283 471.372,983.407 474.437,987.383C478.731,992.954 493.005,1006.3 491.844,1008.27C490.684,1010.25 475.577,1002.29 467.474,999.22C457.378,995.391 441.364,990.633 431.267,985.295C422.321,980.565 409.45,967.307 406.897,967.191C404.344,967.075 412.681,978.933 415.949,984.598C419.431,990.633 430.107,1003.4 427.786,1003.4C425.465,1003.4 409.334,992.257 402.023,984.598C394.712,976.939 387.395,967.752 383.92,957.443C380.438,947.115 380.112,934.226 381.135,922.629C382.179,910.792 387.169,897.678 390.186,886.422C393.001,875.921 397.265,863.328 399.238,855.089C400.66,849.151 399.654,842.612 402.023,836.985Z" style="stroke:black;stroke-width:4.51px;"/>
            </g>
            <g transform="matrix(1,0,0,1,-288.451,58.6901)">
                <path d="M1116.67,689.874C1102.41,690.768 1072.66,690.129 1060.28,692.894C1052.98,694.526 1044.18,699.196 1042.39,706.465C1038.19,723.533 1036.08,769.089 1035.11,795.304C1034.26,818.11 1033.41,849.19 1036.57,863.754C1038.38,872.148 1046.32,878.926 1054.04,882.687C1063.51,887.299 1079.99,890.228 1093.36,891.425C1109.63,892.882 1137.06,894.824 1151.62,891.425C1163.16,888.732 1174.92,878.803 1180.75,871.036C1186.12,863.875 1185.79,853.739 1186.57,844.821C1188.76,819.82 1195.07,745.544 1193.86,721.029C1193.4,711.88 1186.81,702.964 1179.29,697.726C1171.28,692.144 1156.23,688.84 1145.79,687.532C1136.13,686.32 1126.39,689.265 1116.67,689.874Z" style="fill:white;stroke:black;stroke-width:3.51px;"/>
            </g>
            <g transform="matrix(0.719218,0,0,0.719218,437.306,230.673)">
                <path d="M402.023,836.985C405.737,828.166 415.021,811.571 421.519,802.171C427.033,794.196 433.939,787.213 441.015,780.586C448.326,773.739 461.208,762.831 465.386,761.09C468.179,759.926 466.72,767.184 466.082,770.142C464.805,776.06 460.787,787.873 457.726,796.601C454.593,805.536 449.361,814.283 447.282,823.756C445.193,833.272 444.961,844.412 445.193,853.696C445.41,862.359 446.626,871.039 448.675,879.459C450.763,888.046 454.129,897.098 457.726,905.222C461.259,913.199 471.884,927.503 470.26,928.199C468.635,928.895 451.344,909.399 447.978,909.399C444.613,909.399 448.831,922.016 450.067,928.199C451.576,935.742 454.361,946.883 457.03,954.658C459.425,961.634 463.181,969.396 466.082,974.85C468.44,979.283 471.372,983.407 474.437,987.383C478.731,992.954 493.005,1006.3 491.844,1008.27C490.684,1010.25 475.577,1002.29 467.474,999.22C457.378,995.391 441.364,990.633 431.267,985.295C422.321,980.565 409.45,967.307 406.897,967.191C404.344,967.075 412.681,978.933 415.949,984.598C419.431,990.633 430.107,1003.4 427.786,1003.4C425.465,1003.4 409.334,992.257 402.023,984.598C394.712,976.939 387.395,967.752 383.92,957.443C380.438,947.115 380.112,934.226 381.135,922.629C382.179,910.792 387.169,897.678 390.186,886.422C393.001,875.921 397.265,863.328 399.238,855.089C400.66,849.151 399.654,842.612 402.023,836.985Z" style="stroke:black;stroke-width:4.88px;"/>
            </g>
            <g transform="matrix(1,0,0,2.88264,-179.66,-1264.62)">
                <circle cx="964.232" cy="730.046" r="6.654" style="stroke:black;stroke-width:1.65px;"/>
            </g>
            <g transform="matrix(1,0,0,2.99339,-97.1433,-1347.14)">
                <circle cx="964.232" cy="730.046" r="6.654" style="stroke:black;stroke-width:1.6px;"/>
            </g>
            <g transform="matrix(1,0,0,1,-7.36887,36.8444)">
                <path d="M870.672,720.807C868.1,722.604 883.128,736.869 889.562,744.734C897.157,754.019 913.673,778.314 916.245,776.517C918.816,774.72 912.588,743.237 904.993,733.952C897.397,724.667 873.244,719.01 870.672,720.807Z" style="stroke:black;stroke-width:3.51px;"/>
            </g>
            <g transform="matrix(1,0,0,1,-7.36887,36.8444)">
                <path d="M873.609,725.27C875.137,730.246 868.414,749.168 861.14,756.441C853.867,763.714 831.097,769.166 829.969,768.909C828.841,768.653 849.425,758.918 854.373,754.904C857.318,752.514 859.973,748.604 859.652,744.825C859.252,740.105 849.647,729.845 851.973,726.585C854.299,723.326 872.081,720.294 873.609,725.27Z" style="stroke:black;stroke-width:3.51px;"/>
            </g>
            <g transform="matrix(1,0,0,1,-7.36887,36.8444)">
                <path d="M756.072,764.883C763.865,770.462 792.224,745.448 811.645,739.165C833.054,732.239 867.76,720.928 884.524,723.325C898.054,725.26 908.872,756.278 912.23,753.549C915.588,750.821 910.341,717.239 904.674,706.954C899.774,698.061 888.296,693.155 878.228,691.842C858.918,689.323 807.705,689.533 788.815,691.842C779.667,692.96 768.658,697.285 764.888,705.695C759.431,717.868 748.28,759.305 756.072,764.883Z" style="fill:white;stroke:black;stroke-width:3.51px;"/>
            </g>
            <g transform="matrix(1,0,0,1,-7.36887,36.8444)">
                <path d="M785.065,734.772C776.714,733.322 779.375,714.739 782.518,709.473C785.662,704.207 796.625,704.596 803.927,703.176C811.483,701.707 822.876,698.125 827.854,700.657C832.833,703.19 838.667,714.49 833.797,718.372C826.665,724.058 793.612,736.255 785.065,734.772Z" style="stroke:black;stroke-width:3.51px;"/>
            </g>
            <g transform="matrix(1,0,0,1,-7.36887,36.8444)">
                <path d="M781.259,724.585C783.014,731.174 786.525,744.353 791.576,746.398C796.628,748.442 804.665,739.477 811.567,736.852C818.882,734.07 832.542,735.739 835.467,729.706C838.391,723.674 832.206,708.329 829.114,700.657" style="fill:none;stroke:black;stroke-width:3.51px;"/>
            </g>
        </g>
        <g transform="matrix(1.07724,0,0,1,-526.947,-77.5267)">
            <path d="M842,506.5C842,495.186 833.473,486 822.97,486L615.03,486C604.527,486 596,495.186 596,506.5L596,547.5C596,558.814 604.527,568 615.03,568L822.97,568C833.473,568 842,558.814 842,547.5L842,506.5Z" style="stroke:white;stroke-width:4.01px;"/>
        </g>
        <g transform="matrix(0.589003,0,0,0.589003,-207.919,141.633)">
            <text x="673.59px" y="541.858px" style="font-family:'Arial-BoldMT', 'Arial', sans-serif;font-weight:700;font-size:50px;fill:white;stroke:white;stroke-width:1.7px;stroke-linecap:butt;stroke-miterlimit:2;">ARTIST</text>
        </g>
    </g>
    <g>
        <g transform="matrix(0.181371,0,0,0.129162,21.0746,558.622)">
            <rect x="212.756" y="316.466" width="2117.2" height="2973" style="fill:white;stroke:black;stroke-width:52.93px;"/>
        </g>
        <g transform="matrix(0.935578,0,0,0.945435,-493.374,45.2439)">
            <path d="M720.039,878.557C689.839,898.409 637.481,963.462 635.841,982.205C634.201,1000.95 685.277,989.643 710.198,991.017C742.643,992.806 800.757,994.576 830.512,992.936C850.279,991.847 868.986,982.645 888.729,981.177C909.879,979.605 955.772,1003.18 957.412,983.503C959.052,963.823 921.965,883.162 898.569,863.094C877.94,845.4 844.112,860.749 817.035,863.094C787.28,865.671 747.397,860.573 720.039,878.557Z" style="stroke:black;stroke-width:4.43px;"/>
            <g transform="matrix(1.35193,0,0,1.35193,-278.959,-315.539)">
                <path d="M757.994,892.615C750.496,900.346 777.44,935.49 790.326,934.787C803.212,934.084 840.699,895.426 835.31,888.397C829.921,881.369 765.491,884.883 757.994,892.615Z" style="fill:white;stroke:black;stroke-width:3.28px;"/>
            </g>
            <path d="M705.723,697.869C729.281,665.515 844.561,664.887 871.575,695.985C898.589,727.082 891.365,852.1 867.806,884.454C844.247,916.808 757.237,921.205 730.224,890.108C703.21,859.01 682.164,730.223 705.723,697.869Z" style="fill:white;stroke:black;stroke-width:4.43px;"/>
            <path d="M749.331,699.376C747.752,684.646 741.264,635.369 741.965,624.672C742.307,619.47 750.207,638.175 753.539,635.194C756.871,632.213 757.923,605.558 761.956,606.786C765.99,608.013 774.056,638.526 777.739,642.559C780.702,645.804 780.72,631.161 784.052,630.985C787.384,630.81 795.505,646.812 797.73,641.507C800.01,636.071 796.152,603.278 797.73,598.368C799.308,593.458 805.334,606.824 807.199,612.046C809.83,619.412 812.46,634.142 813.512,642.559C814.339,649.171 813.882,655.897 813.512,662.55C812.986,672.02 812.986,694.115 810.356,699.376C808.317,703.454 800.36,691.66 797.73,694.115C795.099,696.57 797.379,714.281 794.573,714.106C791.768,713.931 783.876,694.115 780.895,693.063C777.914,692.011 779.317,708.319 776.687,707.793C774.056,707.267 768.094,690.783 765.113,689.906C762.132,689.03 761.08,698.674 758.8,702.532C756.622,706.218 753.013,713.58 751.435,713.054C749.857,712.528 749.822,703.963 749.331,699.376Z" style="stroke:black;stroke-width:4.43px;"/>
            <path d="M705.14,681.489C708.998,687.451 712.856,693.414 716.714,699.376" style="fill:none;stroke:black;stroke-width:4.43px;"/>
            <path d="M853.494,672.02C851.741,677.631 849.987,683.243 848.234,688.854" style="fill:none;stroke:black;stroke-width:4.43px;"/>
            <path d="M859.807,694.115C862.262,691.309 864.717,688.503 867.172,685.698" style="fill:none;stroke:black;stroke-width:4.43px;"/>
            <g transform="matrix(0.512332,0,0,0.512332,353.11,344.655)">
                <circle cx="726.709" cy="709.371" r="2.63" style="stroke:black;stroke-width:8.65px;"/>
            </g>
            <g transform="matrix(0.512332,0,0,0.512332,360.732,331.365)">
                <circle cx="726.709" cy="709.371" r="2.63" style="stroke:black;stroke-width:8.65px;"/>
            </g>
            <g transform="matrix(0.512332,0,0,0.512332,460.797,327.847)">
                <circle cx="726.709" cy="709.371" r="2.63" style="stroke:black;stroke-width:8.65px;"/>
            </g>
            <g transform="matrix(0.512332,0,0,0.512332,481.123,345.046)">
                <circle cx="726.709" cy="709.371" r="2.63" style="stroke:black;stroke-width:8.65px;"/>
            </g>
            <g transform="matrix(1,0,0,2.88264,-220.14,-1329.58)">
                <circle cx="964.232" cy="730.046" r="6.654" style="stroke:black;stroke-width:2.04px;"/>
            </g>
            <g transform="matrix(1,0,0,2.99339,-125.329,-1412.1)">
                <circle cx="964.232" cy="730.046" r="6.654" style="stroke:black;stroke-width:1.98px;"/>
            </g>
        </g>
        <g transform="matrix(1.07724,0,0,1,-520.759,449.846)">
            <path d="M842,506.5C842,495.186 833.473,486 822.97,486L615.03,486C604.527,486 596,495.186 596,506.5L596,547.5C596,558.814 604.527,568 615.03,568L822.97,568C833.473,568 842,558.814 842,547.5L842,506.5Z" style="stroke:white;stroke-width:4.01px;"/>
        </g>
        <g transform="matrix(0.589003,0,0,0.589003,-244.363,669.833)">
            <text x="673.59px" y="541.858px" style="font-family:'Arial-BoldMT', 'Arial', sans-serif;font-weight:700;font-size:50px;fill:white;stroke:white;stroke-width:1.7px;stroke-linecap:butt;stroke-miterlimit:2;">SOUND ENG.</text>
        </g>
    </g>
    <g>
        <g transform="matrix(0.181371,0,0,0.129162,1510.26,36.6786)">
            <rect x="212.756" y="316.466" width="2117.2" height="2973" style="fill:white;stroke:black;stroke-width:52.93px;"/>
        </g>
        <g transform="matrix(1.37566,0,0,1.32972,616.167,-855.066)">
            <path d="M802.61,937.39C782.714,940.584 746.313,950.204 728.921,958.023C716.643,963.543 691.872,978.656 698.259,984.306C704.645,989.955 744.111,991.442 767.239,991.92C792.983,992.452 825.399,988.645 852.718,987.499C878.854,986.402 923.296,991.675 931.156,985.043C939.016,978.411 913.689,955.403 899.879,947.707C886.069,940.01 864.509,940.584 848.297,938.864C833.145,937.257 817.654,934.976 802.61,937.39Z" style="stroke:black;stroke-width:3.08px;"/>
        </g>
        <g transform="matrix(1.37566,0,0,1.32972,600.74,-849.924)">
            <path d="M832.672,885.6C828.616,883.672 822.122,882.19 819.2,885.6C814.831,890.697 808.823,906.475 806.457,916.184C804.269,925.158 803.544,938.272 805,943.855C805.988,947.642 811.292,949.392 815.195,949.681C821.749,950.166 837.526,947.253 844.323,946.768C848.196,946.491 854.146,950.195 855.974,946.768C857.916,943.127 855.974,932.204 855.974,924.922C855.974,917.64 859.686,909.341 855.974,903.076C852.09,896.523 838.801,888.513 832.672,885.6Z" style="fill:white;stroke:black;stroke-width:3.08px;"/>
        </g>
        <g transform="matrix(1,0,0,0.962423,0,14.0809)">
            <path d="M1672.76,106.356C1702.48,67.615 1810.2,67.7 1836.28,108.133C1862.36,148.566 1858.94,310.212 1829.23,348.953C1799.51,387.694 1684.08,381.011 1658,340.578C1631.92,300.145 1643.05,145.097 1672.76,106.356Z" style="fill:none;stroke:black;stroke-width:4.25px;"/>
        </g>
        <g transform="matrix(1.14049,0,0,3.28762,598.938,-2194.77)">
            <circle cx="964.232" cy="730.046" r="6.654" style="stroke:black;stroke-width:1.69px;"/>
        </g>
        <g transform="matrix(1.14049,0,0,3.41392,693.047,-2288.88)">
            <circle cx="964.232" cy="730.046" r="6.654" style="stroke:black;stroke-width:1.64px;"/>
        </g>
        <g transform="matrix(1.14049,0,0,1.14049,879.474,-697.018)">
            <path d="M668.423,843.834C672.932,839.701 694.287,874.242 704.644,877.844C713.692,880.99 721.183,867.357 730.57,865.445C740.715,863.378 755.181,865.445 765.513,865.445C774.531,865.445 786.367,863.378 792.566,865.445C797.632,867.133 798.202,877.468 802.711,877.844C807.22,878.22 814.276,871.526 819.619,867.699C828.202,861.551 849.888,835.697 854.209,840.957C858.53,846.218 849.807,884.471 845.545,899.261C842.331,910.412 834.273,921.805 828.637,929.695C824.004,936.181 815.862,945.852 811.729,946.603C807.596,947.355 807.408,934.204 803.838,934.204C800.269,934.204 794.821,945.664 790.312,946.603C785.803,947.543 781.294,937.774 776.785,939.84C772.277,941.907 766.641,959.754 763.259,959.003C759.877,958.251 759.69,937.398 756.496,935.331C753.302,933.265 748.418,946.228 744.097,946.603C739.776,946.979 733.2,936.646 730.57,937.586C727.94,938.525 730.758,952.051 728.316,952.239C725.873,952.427 721.552,938.901 715.916,938.713C710.28,938.525 697.693,951.488 694.5,951.112C691.306,950.736 698.219,941.178 696.754,936.458C695.063,931.01 687.548,924.059 684.355,918.423C681.533,913.444 678.787,908.239 677.592,902.642C674.936,890.211 663.914,847.967 668.423,843.834Z" style="stroke:black;stroke-width:3.65px;"/>
        </g>
        <g transform="matrix(1.14049,0,0,1.35619,874.332,-899.521)">
            <path d="M727.188,910.533C724.746,907.903 730.929,895.059 737.333,892.498C744.848,889.492 763.823,892.31 772.277,892.498C777.549,892.615 784.864,890.055 788.058,893.625C791.251,897.194 794.069,910.909 791.439,913.914C788.809,916.92 778.644,912.57 772.277,911.66C765.701,910.721 758.841,908.45 751.987,908.278C744.472,908.091 729.631,913.163 727.188,910.533Z" style="fill:white;stroke:black;stroke-width:3.33px;"/>
        </g>
        <g transform="matrix(1.07724,0,0,1,961.748,-69.8733)">
            <path d="M842,506.5C842,495.186 833.473,486 822.97,486L615.03,486C604.527,486 596,495.186 596,506.5L596,547.5C596,558.814 604.527,568 615.03,568L822.97,568C833.473,568 842,558.814 842,547.5L842,506.5Z" style="stroke:white;stroke-width:4.01px;"/>
        </g>
        <g transform="matrix(0.589003,0,0,0.589003,1264.69,145.774)">
            <text x="673.59px" y="541.858px" style="font-family:'Arial-BoldMT', 'Arial', sans-serif;font-weight:700;font-size:50px;fill:white;stroke:white;stroke-width:1.7px;stroke-linecap:butt;stroke-miterlimit:2;">PRODUCER</text>
        </g>
    </g>
</svg>
